<svg id="svg" version="1.1" xmlns="http://www.w3.org/2000/svg" style="display: block;" viewBox="0 0 200 200"><path d="M0 0 C66 0 132 0 200 0 C200 66 200 132 200 200 C134 200 68 200 0 200 C0 134 0 68 0 0 Z " transform="translate(0,0)" style="fill: #FEFEFE;"/><path d="M0 0 C4.18259867 2.6357285 7.68380338 6.77776301 9.890625 11.19140625 C10.77980796 17.31406607 9.80906078 21.48526728 6.2578125 26.53125 C3.74172225 29.58650245 1.62228208 30.94752056 -2.109375 32.19140625 C-10.09383079 32.92886931 -16.58277167 32.01268892 -22.921875 26.94140625 C-26.50114444 22.44175324 -28.4443629 18.48472647 -28.109375 12.69140625 C-27.35460737 7.93555858 -25.49836359 4.58960404 -22.109375 1.19140625 C-15.70891109 -3.42288168 -7.09847499 -2.9865535 0 0 Z " transform="translate(42.109375,86.80859375)" style="fill: #50B9BD;"/><path d="M0 0 C1.65 0 3.3 0 5 0 C5.33 0.99 5.66 1.98 6 3 C6.99 3.33 7.98 3.66 9 4 C9 4.66 9 5.32 9 6 C10.98 6 12.96 6 15 6 C15 5.01 15 4.02 15 3 C16.32 3 17.64 3 19 3 C19 3.99 19 4.98 19 6 C19.99 6 20.98 6 22 6 C22 6.99 22 7.98 22 9 C21.01 9 20.02 9 19 9 C19 10.98 19 12.96 19 15 C19.99 15 20.98 15 22 15 C22 15.99 22 16.98 22 18 C20.865625 17.814375 19.73125 17.62875 18.5625 17.4375 C17.386875 17.293125 16.21125 17.14875 15 17 C14.67 17.33 14.34 17.66 14 18 C12.33382885 18.04063832 10.66611905 18.042721 9 18 C7.64560332 15.29120665 7.93498549 12.99066732 8 10 C7.34 10 6.68 10 6 10 C6 12.64 6 15.28 6 18 C4.02 18 2.04 18 0 18 C-0.99 20.475 -0.99 20.475 -2 23 C-9.75 23.125 -9.75 23.125 -12 22 C-12 21.01 -12 20.02 -12 19 C-8.535 18.505 -8.535 18.505 -5 18 C-5 17.67 -5 17.34 -5 17 C-6.134375 16.87625 -7.26875 16.7525 -8.4375 16.625 C-9.613125 16.41875 -10.78875 16.2125 -12 16 C-13.38125018 13.23749964 -13.19079306 11.05268901 -13 8 C-11 6 -11 6 -8.3984375 5.8046875 C-7.40070313 5.82789062 -6.40296875 5.85109375 -5.375 5.875 C-3.87066406 5.90207031 -3.87066406 5.90207031 -2.3359375 5.9296875 C-1.56507813 5.95289062 -0.79421875 5.97609375 0 6 C0 4.02 0 2.04 0 0 Z " transform="translate(159,90)" style="fill: #C5F5F5;"/><path d="M0 0 C1.485 0.99 1.485 0.99 3 2 C3.328125 3.875 3.328125 3.875 3.25 6 C3.23453125 6.70125 3.2190625 7.4025 3.203125 8.125 C3 10 3 10 2 12 C7.80766296 13.5056904 12.9981863 14.21824777 19 14 C19.33 13.01 19.66 12.02 20 11 C20.66 11.33 21.32 11.66 22 12 C22 12.66 22 13.32 22 14 C23.65 13.67 25.3 13.34 27 13 C27.33 11.02 27.66 9.04 28 7 C28.66 7 29.32 7 30 7 C30.125 13.625 30.125 13.625 29 17 C28.34 17 27.68 17 27 17 C27 17.66 27 18.32 27 19 C26.34 19 25.68 19 25 19 C24.67 19.99 24.34 20.98 24 22 C19.50242967 24.75657536 14.09037478 24.77243927 9 24 C4.59590398 22.10105313 1.6645739 19.99686084 -1 16 C-1.23046875 13.22265625 -1.23046875 13.22265625 -1.1875 10.0625 C-1.18105469 9.02222656 -1.17460937 7.98195313 -1.16796875 6.91015625 C-1.02535748 4.43933308 -0.71031012 2.35822959 0 0 Z " transform="translate(17,94)" style="fill: #32A3D2;"/><path d="M0 0 C1.32 0.33 2.64 0.66 4 1 C4 6.28 4 11.56 4 17 C2.68 17 1.36 17 0 17 C0 16.34 0 15.68 0 15 C-0.515625 15.350625 -1.03125 15.70125 -1.5625 16.0625 C-4.94006667 17.3615641 -7.50468057 16.67217681 -11 16 C-11.33 13.36 -11.66 10.72 -12 8 C-13.32 8.33 -14.64 8.66 -16 9 C-16.33 11.64 -16.66 14.28 -17 17 C-18.32 17 -19.64 17 -21 17 C-21.02686553 15.02090602 -21.04633375 13.04171029 -21.0625 11.0625 C-21.07410156 9.96035156 -21.08570312 8.85820313 -21.09765625 7.72265625 C-21 5 -21 5 -20 4 C-18.58672053 3.84379445 -17.1664541 3.74943827 -15.74609375 3.68359375 C-14.89208984 3.64169922 -14.03808594 3.59980469 -13.15820312 3.55664062 C-12.26037109 3.51732422 -11.36253906 3.47800781 -10.4375 3.4375 C-9.08495117 3.37272461 -9.08495117 3.37272461 -7.70507812 3.30664062 C-5.47021515 3.20021858 -3.23523692 3.09820012 -1 3 C-0.67 2.01 -0.34 1.02 0 0 Z " transform="translate(140,91)" style="fill: #C4F0F0;"/><path d="M0 0 C1.03350586 0.06574219 1.03350586 0.06574219 2.08789062 0.1328125 C7.18087798 0.49337798 7.18087798 0.49337798 8.3125 1.625 C8.41073937 3.28929051 8.44223631 4.95781931 8.4375 6.625 C8.44136719 7.98625 8.44136719 7.98625 8.4453125 9.375 C8.3125 11.625 8.3125 11.625 7.3125 12.625 C4.875 12.8125 4.875 12.8125 2.3125 12.625 C1.6525 11.965 0.9925 11.305 0.3125 10.625 C-0.07808594 11.12515625 -0.46867187 11.6253125 -0.87109375 12.140625 C-2.6875 13.625 -2.6875 13.625 -5.09765625 13.734375 C-6.41056641 13.55648437 -6.41056641 13.55648437 -7.75 13.375 C-8.62785156 13.26671875 -9.50570313 13.1584375 -10.41015625 13.046875 C-12.6875 12.625 -12.6875 12.625 -14.6875 11.625 C-14.6875 10.305 -14.6875 8.985 -14.6875 7.625 C-14.0275 7.625 -13.3675 7.625 -12.6875 7.625 C-12.6875 6.965 -12.6875 6.305 -12.6875 5.625 C-13.3475 5.625 -14.0075 5.625 -14.6875 5.625 C-14.6875 4.305 -14.6875 2.985 -14.6875 1.625 C-13.6975 2.12 -13.6975 2.12 -12.6875 2.625 C-13.0175 3.285 -13.3475 3.945 -13.6875 4.625 C-13.0275 4.625 -12.3675 4.625 -11.6875 4.625 C-11.6875 5.945 -11.6875 7.265 -11.6875 8.625 C-12.3475 8.625 -13.0075 8.625 -13.6875 8.625 C-13.6875 9.285 -13.6875 9.945 -13.6875 10.625 C-12.0375 10.955 -10.3875 11.285 -8.6875 11.625 C-8.6875 8.325 -8.6875 5.025 -8.6875 1.625 C-9.6775 1.295 -10.6675 0.965 -11.6875 0.625 C-7.80418968 -0.71269559 -4.01984777 -0.3059827 0 0 Z " transform="translate(36.6875,95.375)" style="fill: #74D2E6;"/><path d="M0 0 C-0.639375 0.9075 -1.27875 1.815 -1.9375 2.75 C-3.61428953 5.39221381 -4.53689998 6.9898499 -5 10 C-4.34 10.33 -3.68 10.66 -3 11 C-3 14.3 -3 17.6 -3 21 C-4.65 20.67 -6.3 20.34 -8 20 C-8 19.34 -8 18.68 -8 18 C-7.34 18 -6.68 18 -6 18 C-6 16.68 -6 15.36 -6 14 C-6.66 14 -7.32 14 -8 14 C-8.33 13.01 -8.66 12.02 -9 11 C-9 12.32 -9 13.64 -9 15 C-8.34 15 -7.68 15 -7 15 C-7 15.66 -7 16.32 -7 17 C-7.66 17 -8.32 17 -9 17 C-9 17.99 -9 18.98 -9 20 C-9.99 20 -10.98 20 -12 20 C-11.98839844 19.28972656 -11.97679687 18.57945313 -11.96484375 17.84765625 C-11.95582031 16.92855469 -11.94679688 16.00945312 -11.9375 15.0625 C-11.92589844 14.14597656 -11.91429687 13.22945312 -11.90234375 12.28515625 C-11.74050951 10.03406673 -11.74050951 10.03406673 -13 9 C-13.66 13.29 -14.32 17.58 -15 22 C-17.44495953 17.11008094 -17.36725259 14.20607718 -16 9 C-14.26363867 5.56615109 -12.17850214 2.9035183 -9.125 0.5625 C-6.06067971 -0.24864361 -3.15006275 -0.12115626 0 0 Z " transform="translate(31,86)" style="fill: #4EB2C8;"/><path d="M0 0 C0.90492188 0.02320312 1.80984375 0.04640625 2.7421875 0.0703125 C4.10730469 0.09738281 4.10730469 0.09738281 5.5 0.125 C6.19867188 0.14820312 6.89734375 0.17140625 7.6171875 0.1953125 C7.6982081 2.29884745 7.75638657 4.40327202 7.8046875 6.5078125 C7.83949219 7.67957031 7.87429687 8.85132812 7.91015625 10.05859375 C7.6171875 13.1953125 7.6171875 13.1953125 6.3671875 15.1015625 C3.23003241 17.06228443 0.23176151 16.37307843 -3.3828125 16.1953125 C-3.3828125 15.2053125 -3.3828125 14.2153125 -3.3828125 13.1953125 C0.0821875 12.7003125 0.0821875 12.7003125 3.6171875 12.1953125 C3.6171875 11.8653125 3.6171875 11.5353125 3.6171875 11.1953125 C2.4828125 11.0715625 1.3484375 10.9478125 0.1796875 10.8203125 C-1.58375 10.5109375 -1.58375 10.5109375 -3.3828125 10.1953125 C-4.76406268 7.43281214 -4.57360556 5.24800151 -4.3828125 2.1953125 C-2.3828125 0.1953125 -2.3828125 0.1953125 0 0 Z " transform="translate(150.3828125,95.8046875)" style="fill: #45BFBB;"/><path d="M0 0 C0.99 0 1.98 0 3 0 C3 5.94 3 11.88 3 18 C-6 18 -6 18 -9 16 C-9.36328125 14.125 -9.36328125 14.125 -9.3125 12 C-9.30669922 10.948125 -9.30669922 10.948125 -9.30078125 9.875 C-9 8 -9 8 -7 6 C-3.375 5.875 -3.375 5.875 0 6 C0 4.02 0 2.04 0 0 Z " transform="translate(114,90)" style="fill: #4BA3CD;"/><path d="M0 0 C1.32 0 2.64 0 4 0 C4.66 1.98 5.32 3.96 6 6 C6.66 4.02 7.32 2.04 8 0 C9.875 0.25 9.875 0.25 12 1 C13.25 3.0625 13.25 3.0625 14 5 C14.66 3.35 15.32 1.7 16 0 C16.99 0 17.98 0 19 0 C18.69106068 1.6256807 18.3777305 3.25052748 18.0625 4.875 C17.80146484 6.23238281 17.80146484 6.23238281 17.53515625 7.6171875 C17 10 17 10 16 12 C14.35 12 12.7 12 11 12 C10.67 10.35 10.34 8.7 10 7 C9.34 8.65 8.68 10.3 8 12 C6.35 12 4.7 12 3 12 C2.01 8.04 1.02 4.08 0 0 Z " transform="translate(57,96)" style="fill: #49A4CC;"/><path d="M0 0 C1.32 0 2.64 0 4 0 C4.33 2.64 4.66 5.28 5 8 C5.66 8 6.32 8 7 8 C7.33 5.36 7.66 2.72 8 0 C9.32 0 10.64 0 12 0 C12 3.96 12 7.92 12 12 C10.576875 12.061875 9.15375 12.12375 7.6875 12.1875 C6.48673828 12.23970703 6.48673828 12.23970703 5.26171875 12.29296875 C3 12 3 12 1.21875 10.78125 C-0.35672932 8.47862638 -0.30765272 7.07601256 -0.1875 4.3125 C-0.16042969 3.50425781 -0.13335937 2.69601563 -0.10546875 1.86328125 C-0.07066406 1.24839844 -0.03585938 0.63351563 0 0 Z " transform="translate(78,96)" style="fill: #4FA9CE;"/><path d="M0 0 C0.99 0 1.98 0 3 0 C3 1.65 3 3.3 3 5 C3.928125 4.938125 4.85625 4.87625 5.8125 4.8125 C9 5 9 5 10.875 6 C12.70488947 9.25313684 12.18128355 12.31390109 12 16 C11.01 16 10.02 16 9 16 C8.67 13.69 8.34 11.38 8 9 C6.68 9 5.36 9 4 9 C3.67 11.31 3.34 13.62 3 16 C2.01 16 1.02 16 0 16 C0 10.72 0 5.44 0 0 Z " transform="translate(160,91)" style="fill: #45BDB8;"/><path d="M0 0 C1.9587043 0.14076315 3.91696093 0.2877676 5.875 0.4375 C7.51082031 0.55931641 7.51082031 0.55931641 9.1796875 0.68359375 C12 1 12 1 14 2 C14 4.64 14 7.28 14 10 C12.68 10.33 11.36 10.66 10 11 C9.67 10.01 9.34 9.02 9 8 C7.68 8 6.36 8 5 8 C4.67 6.68 4.34 5.36 4 4 C2.68 4 1.36 4 0 4 C0 2.68 0 1.36 0 0 Z " transform="translate(30,96)" style="fill: #4BAFC1;"/><path d="M0 0 C6.8359375 -0.29296875 6.8359375 -0.29296875 9 0 C11.13586678 3.20380017 11.23132175 4.01939967 11.125 7.6875 C11.10695313 8.49574219 11.08890625 9.30398437 11.0703125 10.13671875 C11.03550781 11.05904297 11.03550781 11.05904297 11 12 C10.01 12 9.02 12 8 12 C7.67 9.36 7.34 6.72 7 4 C6.01 4 5.02 4 4 4 C3.67 6.64 3.34 9.28 3 12 C2.01 12 1.02 12 0 12 C0 8.04 0 4.08 0 0 Z " transform="translate(92,96)" style="fill: #439FC7;"/><path d="M0 0 C1.32 0 2.64 0 4 0 C4 0.99 4 1.98 4 3 C4.99 3 5.98 3 7 3 C7 3.99 7 4.98 7 6 C6.01 6 5.02 6 4 6 C4 7.98 4 9.96 4 12 C4.99 12 5.98 12 7 12 C7 12.99 7 13.98 7 15 C5.33388095 15.042721 3.66617115 15.04063832 2 15 C1 14 1 14 0.90234375 12.15234375 C0.93489583 10.1015625 0.96744792 8.05078125 1 6 C0.34 6 -0.32 6 -1 6 C-0.67 4.02 -0.34 2.04 0 0 Z " transform="translate(174,93)" style="fill: #4ABDB6;"/><path d="M0 0 C1.2065625 0.0309375 1.2065625 0.0309375 2.4375 0.0625 C2.7675 1.0525 3.0975 2.0425 3.4375 3.0625 C2.1175 3.0625 0.7975 3.0625 -0.5625 3.0625 C-0.5625 3.7225 -0.5625 4.3825 -0.5625 5.0625 C1.0875 5.3925 2.7375 5.7225 4.4375 6.0625 C3.5625 10.9375 3.5625 10.9375 2.4375 12.0625 C0.77132885 12.10313832 -0.89638095 12.105221 -2.5625 12.0625 C-2.5625 10.7425 -2.5625 9.4225 -2.5625 8.0625 C-0.5825 8.5575 -0.5825 8.5575 1.4375 9.0625 C1.4375 8.4025 1.4375 7.7425 1.4375 7.0625 C-0.2125 6.7325 -1.8625 6.4025 -3.5625 6.0625 C-3.605221 4.39638095 -3.60313832 2.72867115 -3.5625 1.0625 C-2.5625 0.0625 -2.5625 0.0625 0 0 Z " transform="translate(133.5625,95.9375)" style="fill: #53BFB9;"/><path d="M0 0 C1.65 0 3.3 0 5 0 C5.33 0.99 5.66 1.98 6 3 C6.99 3.33 7.98 3.66 9 4 C9 4.66 9 5.32 9 6 C7.35 6 5.7 6 4 6 C4 4.35 4 2.7 4 1 C3.01 1 2.02 1 1 1 C1.03480469 2.16917969 1.06960937 3.33835937 1.10546875 4.54296875 C1.13361716 6.09113141 1.16091619 7.63930968 1.1875 9.1875 C1.22520508 10.34088867 1.22520508 10.34088867 1.26367188 11.51757812 C1.32272456 16.10400331 1.19838522 19.40181662 -2 23 C-4.79965679 23.66913403 -7.08800141 23.23868841 -10 23 C-10 22.67 -10 22.34 -10 22 C-8.2984375 21.5359375 -8.2984375 21.5359375 -6.5625 21.0625 C-3.21224901 20.37075469 -3.21224901 20.37075469 -2 19 C-1.77428816 17.58879098 -1.60611651 16.16823957 -1.46484375 14.74609375 C-1.33432617 13.46508789 -1.33432617 13.46508789 -1.20117188 12.15820312 C-1.0706543 10.81145508 -1.0706543 10.81145508 -0.9375 9.4375 C-0.84662109 8.53580078 -0.75574219 7.63410156 -0.66210938 6.70507812 C-0.43746077 4.47041566 -0.21694231 2.23542161 0 0 Z " transform="translate(159,90)" style="fill: #DCFCFB;"/><path d="M0 0 C2.97 0 5.94 0 9 0 C9 0.99 9 1.98 9 3 C7.68 3.33 6.36 3.66 5 4 C4.67 6.64 4.34 9.28 4 12 C2.68 12 1.36 12 0 12 C0 8.04 0 4.08 0 0 Z " transform="translate(119,96)" style="fill: #56A9CB;"/><path d="M0 0 C3.3 0 6.6 0 10 0 C10 2.64 10 5.28 10 8 C10.66 8 11.32 8 12 8 C12 6.02 12 4.04 12 2 C12.33 2 12.66 2 13 2 C13 4.31 13 6.62 13 9 C11.68 9 10.36 9 9 9 C9 6.36 9 3.72 9 1 C7.68 1 6.36 1 5 1 C5.03480469 1.61488281 5.06960937 2.22976562 5.10546875 2.86328125 C5.13253906 3.67152344 5.15960938 4.47976562 5.1875 5.3125 C5.22230469 6.11300781 5.25710937 6.91351563 5.29296875 7.73828125 C5 10 5 10 3.61328125 11.79296875 C2 13 2 13 0 13 C0.99 9.04 1.98 5.08 3 1 C2.01 0.67 1.02 0.34 0 0 Z " transform="translate(73,95)" style="fill: #E1FAFD;"/><path d="M0 0 C0.99 0 1.98 0 3 0 C3 5.94 3 11.88 3 18 C2.01 18 1.02 18 0 18 C-0.22786458 16.01432292 -0.45572917 14.02864583 -0.68359375 12.04296875 C-0.97170735 9.80603607 -0.97170735 9.80603607 -2 7 C-1.34 7 -0.68 7 0 7 C0 4.69 0 2.38 0 0 Z " transform="translate(114,90)" style="fill: #409FC8;"/><path d="M0 0 C0.66 0 1.32 0 2 0 C2.125 6.625 2.125 6.625 1 10 C0.34 10 -0.32 10 -1 10 C-1 10.66 -1 11.32 -1 12 C-1.66 12 -2.32 12 -3 12 C-3.33 12.99 -3.66 13.98 -4 15 C-5.32 15.33 -6.64 15.66 -8 16 C-6.35 13.69 -4.7 11.38 -3 9 C-5.475 8.01 -5.475 8.01 -8 7 C-8 6.01 -8 5.02 -8 4 C-7.34 4.33 -6.68 4.66 -6 5 C-6 5.66 -6 6.32 -6 7 C-4.35 6.67 -2.7 6.34 -1 6 C-0.67 4.02 -0.34 2.04 0 0 Z " transform="translate(45,101)" style="fill: #37A7CB;"/><path d="M0 0 C0.94875 0.04125 1.8975 0.0825 2.875 0.125 C2.875 0.785 2.875 1.445 2.875 2.125 C1.555 2.125 0.235 2.125 -1.125 2.125 C-1.37530977 4.54119823 -1.37530977 4.54119823 -1.125 7.125 C-0.135 7.785 0.855 8.445 1.875 9.125 C1.875 9.785 1.875 10.445 1.875 11.125 C-1.0625 10.75 -1.0625 10.75 -4.125 10.125 C-5.50625018 7.36249964 -5.31579306 5.17768901 -5.125 2.125 C-3.125 0.125 -3.125 0.125 0 0 Z " transform="translate(151.125,95.875)" style="fill: #4ABFBC;"/><path d="M0 0 C1.32 0 2.64 0 4 0 C4 3.96 4 7.92 4 12 C2.68 12 1.36 12 0 12 C0 8.04 0 4.08 0 0 Z " transform="translate(140,96)" style="fill: #64CAC7;"/><path d="M0 0 C4.95274102 4.95274102 4.95274102 4.95274102 5.09765625 8.1640625 C5.08605469 8.97617188 5.07445312 9.78828125 5.0625 10.625 C5.05347656 11.44226563 5.04445313 12.25953125 5.03515625 13.1015625 C5.02355469 13.72804688 5.01195312 14.35453125 5 15 C4.67 14.01 4.34 13.02 4 12 C3.01 12 2.02 12 1 12 C0.67 8.04 0.34 4.08 0 0 Z " transform="translate(47,92)" style="fill: #60BDB9;"/><path d="M0 0 C0 2.64 0 5.28 0 8 C-0.33 7.34 -0.66 6.68 -1 6 C-4.27773504 6.75150023 -4.27773504 6.75150023 -6 10 C-6 7.36 -6 4.72 -6 2 C-1.125 0 -1.125 0 0 0 Z " transform="translate(129,98)" style="fill: #ECFDFE;"/><path d="M0 0 C2.475 0.495 2.475 0.495 5 1 C7.42811925 6.82748619 7.61727907 12.7757491 8 19 C6.02 19.99 6.02 19.99 4 21 C4.23783203 20.14535156 4.23783203 20.14535156 4.48046875 19.2734375 C5.71455388 13.87315521 5.8109117 9.4387143 3.0625 4.5625 C2.381875 3.716875 1.70125 2.87125 1 2 C0.67 1.34 0.34 0.68 0 0 Z " transform="translate(46,90)" style="fill: #E1FBFA;"/><path d="M0 0 C0.66 0 1.32 0 2 0 C2 3.3 2 6.6 2 10 C0.35 9.67 -1.3 9.34 -3 9 C-3 8.34 -3 7.68 -3 7 C-2.34 7 -1.68 7 -1 7 C-0.67 4.69 -0.34 2.38 0 0 Z " transform="translate(26,97)" style="fill: #44ACC2;"/><path d="M0 0 C1.65 0.33 3.3 0.66 5 1 C4.67 2.65 4.34 4.3 4 6 C2.35 5.67 0.7 5.34 -1 5 C-0.67 3.35 -0.34 1.7 0 0 Z " transform="translate(109,99)" style="fill: #E0FCFD;"/><path d="M0 0 C0.99 0.33 1.98 0.66 3 1 C3.33 3.31 3.66 5.62 4 8 C5.98 8.66 7.96 9.32 10 10 C10 10.33 10 10.66 10 11 C7.03 10.67 4.06 10.34 1 10 C0.67 6.7 0.34 3.4 0 0 Z " transform="translate(102,98)" style="fill: #C7F1FB;"/><path d="M0 0 C1.65 0.33 3.3 0.66 5 1 C4.67 2.32 4.34 3.64 4 5 C2.35 4.67 0.7 4.34 -1 4 C-0.67 2.68 -0.34 1.36 0 0 Z " transform="translate(150,99)" style="fill: #D5FBFA;"/><path d="M0 0 C1.485 0.99 1.485 0.99 3 2 C3.29296875 4.1640625 3.29296875 4.1640625 3.1875 6.625 C3.16042969 7.44226563 3.13335937 8.25953125 3.10546875 9.1015625 C3.07066406 9.72804688 3.03585938 10.35453125 3 11 C2.01 11.33 1.02 11.66 0 12 C0 8.04 0 4.08 0 0 Z " transform="translate(144,96)" style="fill: #DDFCFB;"/><path d="M0 0 C-1 3 -1 3 -2.9375 4.1875 C-7.29934317 5.3447237 -11.5139128 5.15679528 -16 5 C-16 4.67 -16 4.34 -16 4 C-14.73542969 3.81824219 -14.73542969 3.81824219 -13.4453125 3.6328125 C-12.34960938 3.46523437 -11.25390625 3.29765625 -10.125 3.125 C-9.03445312 2.96257812 -7.94390625 2.80015625 -6.8203125 2.6328125 C-3.79771215 1.95461131 -2.92447093 0 0 0 Z " transform="translate(46,114)" style="fill: #65B2C1;"/><path d="M0 0 C0.66 0 1.32 0 2 0 C1.67 2.31 1.34 4.62 1 7 C-1.66666667 7.66666667 -4.33333333 8.33333333 -7 9 C-5.625 7 -5.625 7 -4 5 C-3.34 5 -2.68 5 -2 5 C-2 4.34 -2 3.68 -2 3 C-1.34 3 -0.68 3 0 3 C0 2.01 0 1.02 0 0 Z " transform="translate(46,108)" style="fill: #48B9C5;"/><path d="M0 0 C2.0625 0.4375 2.0625 0.4375 4 1 C4 3.64 4 6.28 4 9 C2.5393715 6.35261084 2 5.10551666 2 2 C1.34 2 0.68 2 0 2 C0 4.31 0 6.62 0 9 C-0.33 9 -0.66 9 -1 9 C-1.09765625 2.84765625 -1.09765625 2.84765625 -1 1 C-0.67 0.67 -0.34 0.34 0 0 Z " transform="translate(96,99)" style="fill: #BDEBF7;"/><path d="M0 0 C1.32 0 2.64 0 4 0 C4 0.99 4 1.98 4 3 C4.99 3 5.98 3 7 3 C7 3.99 7 4.98 7 6 C6.01 6 5.02 6 4 6 C4 7.65 4 9.3 4 11 C3.67 11 3.34 11 3 11 C3 7.7 3 4.4 3 1 C2.34 1 1.68 1 1 1 C0.67 1.66 0.34 2.32 0 3 C0 2.01 0 1.02 0 0 Z " transform="translate(174,93)" style="fill: #68C8C2;"/><path d="M0 0 C0.50789063 0.40992187 1.01578125 0.81984375 1.5390625 1.2421875 C5.5640887 4.39286344 8.95184246 6.73796061 14 8 C14 8.33 14 8.66 14 9 C9.28143404 8.53739549 5.75368013 8.00294411 2 5 C0.6875 2.3125 0.6875 2.3125 0 0 Z " transform="translate(16,110)" style="fill: #DAF7FE;"/><path d="M0 0 C1.32 0 2.64 0 4 0 C4.33 2.97 4.66 5.94 5 9 C4.01 9 3.02 9 2 9 C2.33 6.36 2.66 3.72 3 1 C2.34 1 1.68 1 1 1 C1 3.64 1 6.28 1 9 C0.67 9 0.34 9 0 9 C0 6.03 0 3.06 0 0 Z " transform="translate(78,96)" style="fill: #68B4D6;"/><path d="M0 0 C2.875 -0.1875 2.875 -0.1875 6 0 C6.66 0.99 7.32 1.98 8 3 C5.36 3 2.72 3 0 3 C0 2.01 0 1.02 0 0 Z " transform="translate(147,109)" style="fill: #66C5C3;"/><path d="M0 0 C0.66 0 1.32 0 2 0 C2.125 6.625 2.125 6.625 1 10 C0.34 10 -0.32 10 -1 10 C-0.67 6.7 -0.34 3.4 0 0 Z " transform="translate(45,101)" style="fill: #40A9C1;"/><path d="M0 0 C2.475 0.495 2.475 0.495 5 1 C5 1.66 5 2.32 5 3 C5.99 2.67 6.98 2.34 8 2 C7.34 4.31 6.68 6.62 6 9 C4.79371992 6.66785852 3.8345262 4.50357861 3 2 C2.01 1.34 1.02 0.68 0 0 Z " transform="translate(65,95)" style="fill: #D0F5FD;"/><path d="M0 0 C1.98 0.66 3.96 1.32 6 2 C6 1.34 6 0.68 6 0 C6.66 0.33 7.32 0.66 8 1 C7.34 2.65 6.68 4.3 6 6 C3.37812506 4.95125002 2.20628639 4.35068687 0.75 1.875 C0.5025 1.25625 0.255 0.6375 0 0 Z " transform="translate(16,109)" style="fill: #45A1CD;"/><path d="M0 0 C0.66 0.33 1.32 0.66 2 1 C2 2.65 2 4.3 2 6 C-0.31 6.33 -2.62 6.66 -5 7 C-3.68 6.67 -2.36 6.34 -1 6 C-0.67 4.02 -0.34 2.04 0 0 Z " transform="translate(66,102)" style="fill: #CDF4FB;"/><path d="M0 0 C0.66 1.32 1.32 2.64 2 4 C4.05000871 4.80528889 4.05000871 4.80528889 6 5 C6 5.66 6 6.32 6 7 C4.68 7 3.36 7 2 7 C1.34 7.66 0.68 8.32 0 9 C0 6.03 0 3.06 0 0 Z " transform="translate(129,98)" style="fill: #BEF4F3;"/><path d="M0 0 C0.99 0.33 1.98 0.66 3 1 C2.67 2.65 2.34 4.3 2 6 C1.34 6 0.68 6 0 6 C-0.38218767 4.34385343 -0.71395102 2.67542976 -1 1 C-0.67 0.67 -0.34 0.34 0 0 Z " transform="translate(40,99)" style="fill: #74D2E4;"/><path d="M0 0 C0.33 0 0.66 0 1 0 C1 2.97 1 5.94 1 9 C0.67 8.01 0.34 7.02 0 6 C-0.99 6 -1.98 6 -3 6 C-3 4.68 -3 3.36 -3 2 C-2.34 2 -1.68 2 -1 2 C-0.67 1.34 -0.34 0.68 0 0 Z " transform="translate(51,98)" style="fill: #6DC6C5;"/><path d="M0 0 C2.3125 -0.25 2.3125 -0.25 5 0 C6.8125 2 6.8125 2 8 4 C6.68 4.33 5.36 4.66 4 5 C3.896875 4.360625 3.79375 3.72125 3.6875 3.0625 C3.460625 2.381875 3.23375 1.70125 3 1 C2.01 0.67 1.02 0.34 0 0 Z " transform="translate(39,88)" style="fill: #5DBCB6;"/><path d="M0 0 C0.66 0.33 1.32 0.66 2 1 C1.690625 1.5775 1.38125 2.155 1.0625 2.75 C0.07416636 4.84294184 -0.5168613 6.74535275 -1 9 C-1.66 9 -2.32 9 -3 9 C-3 7.02 -3 5.04 -3 3 C-2.01 3 -1.02 3 0 3 C0 2.01 0 1.02 0 0 Z " transform="translate(181,96)" style="fill: #E0FEFF;"/><path d="M0 0 C1.32 0 2.64 0 4 0 C4.33 0.99 4.66 1.98 5 3 C5.99 3.33 6.98 3.66 8 4 C8 4.66 8 5.32 8 6 C6.35 6 4.7 6 3 6 C3 4.35 3 2.7 3 1 C2.01 0.67 1.02 0.34 0 0 Z " transform="translate(160,90)" style="fill: #C1F2F0;"/><path d="M0 0 C0.99 0.33 1.98 0.66 3 1 C2.34 2.32 1.68 3.64 1 5 C0.67 4.67 0.34 4.34 0 4 C-0.66 4.99 -1.32 5.98 -2 7 C-2.125 4.625 -2.125 4.625 -2 2 C-1.34 1.34 -0.68 0.68 0 0 Z " transform="translate(18,91)" style="fill: #42A5C3;"/></svg>