<svg id="svg" version="1.1" xmlns="http://www.w3.org/2000/svg" viewBox="0 0 183 114" style="display: block;"><path d="M0 0 C60.39 0 120.78 0 183 0 C183 37.62 183 75.24 183 114 C122.61 114 62.22 114 0 114 C0 76.38 0 38.76 0 0 Z " transform="translate(0,0)" style="fill: #FDFEFE;"/><path d="M0 0 C3.0567593 3.9483141 3.75436413 5.97739749 3.6875 10.9375 C3.68105469 11.989375 3.67460938 13.04125 3.66796875 14.125 C3.5 16.9375 3.5 16.9375 2.5 19.9375 C1.84 19.9375 1.18 19.9375 0.5 19.9375 C0.29375 20.515 0.0875 21.0925 -0.125 21.6875 C-2.16022716 25.01787172 -3.97789108 26.20734123 -7.5 27.9375 C-14.76817634 29.0626047 -21.32703317 28.00322916 -27.5 23.9375 C-30.52210151 21.1033761 -33.30633771 18.00819678 -33.703125 13.765625 C-33.80092989 8.38635579 -33.68036227 4.49601926 -30.5 -0.0625 C-21.81063997 -9.01959941 -9.31284707 -7.68309883 0 0 Z " transform="translate(40.5,48.0625)" style="fill: #4AB6BE;"/><path d="M0 0 C3.125 -0.1875 3.125 -0.1875 6 0 C6 1.98 6 3.96 6 6 C7.1446875 5.7525 7.1446875 5.7525 8.3125 5.5 C20.65333333 3.82666667 20.65333333 3.82666667 25 6 C25 6.99 25 7.98 25 9 C23.35 8.67 21.7 8.34 20 8 C21.25541557 10.51083114 22.50063488 10.87125446 25 12 C24.67 13.65 24.34 15.3 24 17 C20.71303767 17.79953138 19.28976808 18.09658936 16 17 C16 15.02 16 13.04 16 11 C14.35 11 12.7 11 11 11 C11 13.64 11 16.28 11 19 C6.7586299 20.18775493 2.62163385 20.16202924 -1.75390625 20.16796875 C-2.60999985 20.17129715 -3.46609344 20.17462555 -4.34812927 20.17805481 C-6.16119857 20.18311375 -7.97427717 20.18546345 -9.78735352 20.18530273 C-12.52831939 20.18747294 -15.26887179 20.20559425 -18.00976562 20.22460938 C-26.85413582 20.25214873 -35.36575331 20.20446194 -44 18 C-44.33 16.35 -44.66 14.7 -45 13 C-45.66 13 -46.32 13 -47 13 C-47.33 14.65 -47.66 16.3 -48 18 C-49.65 18 -51.3 18 -53 18 C-53.99 14.04 -54.98 10.08 -56 6 C-54.68 6 -53.36 6 -52 6 C-51.34 7.65 -50.68 9.3 -50 11 C-49.34 9.35 -48.68 7.7 -48 6 C-46.68 6 -45.36 6 -44 6 C-43.67 8.31 -43.34 10.62 -43 13 C-42.34 13 -41.68 13 -41 13 C-40.67 10.69 -40.34 8.38 -40 6 C-37.03 6 -34.06 6 -31 6 C-30.67 8.64 -30.34 11.28 -30 14 C-29.01 14 -28.02 14 -27 14 C-26.67 11.03 -26.34 8.06 -26 5 C-24.15535156 5.03480469 -24.15535156 5.03480469 -22.2734375 5.0703125 C-20.6406311 5.08908039 -19.0078181 5.10727949 -17.375 5.125 C-16.56675781 5.14175781 -15.75851563 5.15851562 -14.92578125 5.17578125 C-10.2449282 5.21383697 -6.33070371 5.01211157 -2 3 C-1.34 2.01 -0.68 1.02 0 0 Z " transform="translate(105,47)" style="fill: #D3F5FC;"/><path d="M0 0 C0.66 0.33 1.32 0.66 2 1 C1.979375 1.78375 1.95875 2.5675 1.9375 3.375 C1.81315937 5.98114961 1.81315937 5.98114961 3 8 C2.67 8.66 2.34 9.32 2 10 C1.34 10 0.68 10 0 10 C0 13.3 0 16.6 0 20 C1.93736701 20.16820551 3.87489906 20.33451095 5.8125 20.5 C7.43091797 20.63921875 7.43091797 20.63921875 9.08203125 20.78125 C12.01090811 21.03737838 12.01090811 21.03737838 15 21 C15 20.34 15 19.68 15 19 C17.01822917 19.29296875 19.03645833 19.5859375 21.0546875 19.87890625 C23.08140667 20.1684297 23.08140667 20.1684297 25 19 C24.43453326 22.95826719 23.36453668 25.759709 21 29 C16.152485 32.11936503 10.53888161 31.58800709 5 31 C0.07968165 29.38319912 -3.10400762 26.23260425 -6 22 C-7.84615153 18.30769694 -7.34792551 14.03842104 -7 10 C-5.42000846 5.73402284 -3.37391208 3.0248867 0 0 Z " transform="translate(14,44)" style="fill: #30A2D3;"/><path d="M0 0 C1.32 0 2.64 0 4 0 C4 1.98 4 3.96 4 6 C5.423125 5.938125 5.423125 5.938125 6.875 5.875 C10 6 10 6 12 8 C12.1953125 10.1640625 12.1953125 10.1640625 12.125 12.625 C12.10695312 13.44226562 12.08890625 14.25953125 12.0703125 15.1015625 C12.04710937 15.72804688 12.02390625 16.35453125 12 17 C11.34 17 10.68 17 10 17 C9.67 14.69 9.34 12.38 9 10 C6.525 9.505 6.525 9.505 4 9 C4 12.3 4 15.6 4 19 C-1.65404897 21.08764885 -5.98579743 22.38388527 -12 22 C-12 21.34 -12 20.68 -12 20 C-11.195625 19.87625 -10.39125 19.7525 -9.5625 19.625 C-8.716875 19.41875 -7.87125 19.2125 -7 19 C-6.67 18.34 -6.34 17.68 -6 17 C-6.763125 17.061875 -7.52625 17.12375 -8.3125 17.1875 C-11 17 -11 17 -12.875 15.9375 C-14.64782183 12.88430685 -13.69235306 10.33588292 -13 7 C-13.99 6.67 -14.98 6.34 -16 6 C-16 9.63 -16 13.26 -16 17 C-16.99 17 -17.98 17 -19 17 C-19 11.72 -19 6.44 -19 1 C-16.525 1.495 -16.525 1.495 -14 2 C-13.67 2.66 -13.34 3.32 -13 4 C-10.44648887 4.43052263 -10.44648887 4.43052263 -7.5 4.5625 C-2.09628611 4.90371389 -2.09628611 4.90371389 -1 6 C-0.67 4.02 -0.34 2.04 0 0 Z " transform="translate(152,47)" style="fill: #6ACAC7;"/><path d="M0 0 C0.72316406 0.04833984 1.44632813 0.09667969 2.19140625 0.14648438 C7.47558891 0.53808891 7.47558891 0.53808891 8.625 1.6875 C8.72323937 3.35179051 8.75473631 5.02031931 8.75 6.6875 C8.75386719 8.04875 8.75386719 8.04875 8.7578125 9.4375 C8.625 11.6875 8.625 11.6875 7.625 12.6875 C3.90275401 12.98136153 2.84713757 12.83559171 -0.375 10.6875 C-0.375 11.3475 -0.375 12.0075 -0.375 12.6875 C-5.93657448 13.60207003 -10.050665 14.00836397 -15.375 11.6875 C-15.375 8.3875 -15.375 5.0875 -15.375 1.6875 C-9.97366331 -0.16256414 -5.66130922 -0.48480825 0 0 Z " transform="translate(29.375,52.3125)" style="fill: #6BCCE7;"/><path d="M0 0 C1.42892578 -0.00386719 1.42892578 -0.00386719 2.88671875 -0.0078125 C5.3125 0.125 5.3125 0.125 7.3125 1.125 C7.3125 2.115 7.3125 3.105 7.3125 4.125 C4.8375 3.63 4.8375 3.63 2.3125 3.125 C3.56791557 5.63583114 4.81313488 5.99625446 7.3125 7.125 C6.9825 8.775 6.6525 10.425 6.3125 12.125 C3.02553767 12.92453138 1.60226808 13.22158936 -1.6875 12.125 C-1.6875 10.145 -1.6875 8.165 -1.6875 6.125 C-3.3375 6.125 -4.9875 6.125 -6.6875 6.125 C-6.6875 8.435 -6.6875 10.745 -6.6875 13.125 C-8.0075 13.125 -9.3275 13.125 -10.6875 13.125 C-10.6875 9.165 -10.6875 5.205 -10.6875 1.125 C-6.84108554 0.35571711 -3.84794504 -0.01049917 0 0 Z " transform="translate(122.6875,51.875)" style="fill: #BCEAF1;"/><path d="M0 0 C0.66 0.33 1.32 0.66 2 1 C1.979375 1.78375 1.95875 2.5675 1.9375 3.375 C1.81315937 5.98114961 1.81315937 5.98114961 3 8 C2.67 8.66 2.34 9.32 2 10 C1.34 10 0.68 10 0 10 C0 13.3 0 16.6 0 20 C1.98 20.33 3.96 20.66 6 21 C4 23 4 23 1 23 C1 22.34 1 21.68 1 21 C0.34 21.66 -0.32 22.32 -1 23 C-0.98617135 25.05714832 -0.98617135 25.05714832 0 27 C1.9837767 28.28436734 1.9837767 28.28436734 4 29 C0.37023591 29 -0.87018699 27.73297561 -3.59765625 25.484375 C-7.31989989 21.54439566 -7.36841446 17.65978879 -7.25390625 12.46875 C-6.69249499 7.01010509 -3.97730991 3.56586406 0 0 Z " transform="translate(14,44)" style="fill: #3BA4CA;"/><path d="M0 0 C0.99 0 1.98 0 3 0 C3 5.94 3 11.88 3 18 C-6.625 18.25 -6.625 18.25 -10 16 C-10.36328125 14.125 -10.36328125 14.125 -10.3125 12 C-10.30669922 10.948125 -10.30669922 10.948125 -10.30078125 9.875 C-10 8 -10 8 -8 6 C-5.31160615 5.73008094 -2.70858064 5.91262643 0 6 C0 4.02 0 2.04 0 0 Z " transform="translate(107,47)" style="fill: #5CA8C7;"/><path d="M0 0 C1.32 0 2.64 0 4 0 C4.66 1.65 5.32 3.3 6 5 C6.66 3.35 7.32 1.7 8 0 C9.32 0 10.64 0 12 0 C12.33 2.31 12.66 4.62 13 7 C13.66 7 14.32 7 15 7 C15.33 4.69 15.66 2.38 16 0 C16.99 0 17.98 0 19 0 C18.85904936 1.6254308 18.71207913 3.25034051 18.5625 4.875 C18.48128906 5.77992187 18.40007812 6.68484375 18.31640625 7.6171875 C18 10 18 10 17 12 C15.35 12 13.7 12 12 12 C11.67 10.35 11.34 8.7 11 7 C10.34 7 9.68 7 9 7 C8.67 8.65 8.34 10.3 8 12 C6.35 12 4.7 12 3 12 C2.01 8.04 1.02 4.08 0 0 Z " transform="translate(49,53)" style="fill: #5BA8C7;"/><path d="M0 0 C2.475 0.495 2.475 0.495 5 1 C5.33 1.66 5.66 2.32 6 3 C9.65149561 3.60383547 13.30350275 3.74506916 17 4 C17 8.29 17 12.58 17 17 C15.02 16.34 13.04 15.68 11 15 C11.66 14.67 12.32 14.34 13 14 C13 12.02 13 10.04 13 8 C11.68 8 10.36 8 9 8 C8.67 9.32 8.34 10.64 8 12 C7.34 12 6.68 12 6 12 C6 10.02 6 8.04 6 6 C5.01 5.67 4.02 5.34 3 5 C3 8.63 3 12.26 3 16 C2.01 16 1.02 16 0 16 C0 10.72 0 5.44 0 0 Z " transform="translate(133,48)" style="fill: #BCE9E5;"/><path d="M0 0 C1.75478052 0.56879093 3.50369158 1.15570656 5.25 1.75 C6.71179688 2.23726562 6.71179688 2.23726562 8.203125 2.734375 C12.40777147 4.63703625 14.47117035 7.20675553 17 11 C17.23046875 13.8125 17.23046875 13.8125 17.1875 17 C17.18105469 18.051875 17.17460938 19.10375 17.16796875 20.1875 C17 23 17 23 16 26 C15.34 26 14.68 26 14 26 C13.690625 26.86625 13.690625 26.86625 13.375 27.75 C11.33977284 31.08037172 9.52210892 32.26984123 6 34 C2.3070041 34.32510555 -1.30354429 34.23678364 -5 34 C-5 33.67 -5 33.34 -5 33 C-4.41992188 32.95101562 -3.83984375 32.90203125 -3.2421875 32.8515625 C3.57910367 32.23223164 3.57910367 32.23223164 10 30 C11.43923199 27.49004504 11.43923199 27.49004504 12 25 C12.66 25 13.32 25 14 25 C14 21.37 14 17.74 14 14 C13.34 13.67 12.68 13.34 12 13 C12 11.02 12 9.04 12 7 C8.07561214 5.33510818 4.10899581 4.12795963 0 3 C0 2.01 0 1.02 0 0 Z " transform="translate(27,42)" style="fill: #6DBBBE;"/><path d="M0 0 C4.29 0 8.58 0 13 0 C13.33 0.66 13.66 1.32 14 2 C13.01 2.495 13.01 2.495 12 3 C11.67 3.99 11.34 4.98 11 6 C11 5.34 11 4.68 11 4 C10.34 4 9.68 4 9 4 C9.99 5.485 9.99 5.485 11 7 C11.99 7 12.98 7 14 7 C14 7.66 14 8.32 14 9 C11.23723823 8.47731534 8.6739124 7.89130413 6 7 C5.67 7.99 5.34 8.98 5 10 C3.35 10 1.7 10 0 10 C0 6.7 0 3.4 0 0 Z " transform="translate(22,54)" style="fill: #58B9CC;"/><path d="M0 0 C6.8359375 -0.1953125 6.8359375 -0.1953125 9 0 C11 2 11 2 11.1953125 4.3828125 C11.17210938 5.28773437 11.14890625 6.19265625 11.125 7.125 C11.10695313 8.03507812 11.08890625 8.94515625 11.0703125 9.8828125 C11.04710938 10.58148438 11.02390625 11.28015625 11 12 C10.01 12 9.02 12 8 12 C8 9.03 8 6.06 8 3 C6.68 3 5.36 3 4 3 C4 5.97 4 8.94 4 12 C2.68 12 1.36 12 0 12 C0 8.04 0 4.08 0 0 Z " transform="translate(84,53)" style="fill: #55A2C0;"/><path d="M0 0 C0.66 0 1.32 0 2 0 C2 0.66 2 1.32 2 2 C2.66 2 3.32 2 4 2 C4.05404449 4.75026417 4.09369306 7.49946203 4.125 10.25 C4.15013672 11.41595703 4.15013672 11.41595703 4.17578125 12.60546875 C4.23866553 19.96292928 4.23866553 19.96292928 2 23 C1.34 23.33 0.68 23.66 0 24 C-0.66 24.99 -1.32 25.98 -2 27 C-7.09394833 30.32214022 -13.72744757 29.59407837 -19.49609375 28.546875 C-21.34510426 28.08544635 -23.17560457 27.55076089 -25 27 C-25 26.34 -25 25.68 -25 25 C-24.236875 25.165 -23.47375 25.33 -22.6875 25.5 C-13.30096796 26.78482608 -13.30096796 26.78482608 -4.4375 24.1875 C-1.85555314 22.05281683 -1.85555314 22.05281683 0 19 C0.66 19 1.32 19 2 19 C2.05411124 16.58303128 2.09372278 14.16728213 2.125 11.75 C2.14175781 11.06808594 2.15851562 10.38617188 2.17578125 9.68359375 C2.21213482 5.9391765 2.07944349 3.17647273 0 0 Z " transform="translate(41,49)" style="fill: #D6F5F5;"/><path d="M0 0 C0.99 0 1.98 0 3 0 C3 3.63 3 7.26 3 11 C3.99 11 4.98 11 6 11 C6 7.37 6 3.74 6 0 C7.32 0.33 8.64 0.66 10 1 C9.74438677 3.3431213 9.40729228 5.67843403 9 8 C8.01 8.495 8.01 8.495 7 9 C7 9.99 7 10.98 7 12 C2.05 12.66 -2.9 13.32 -8 14 C-6 11 -6 11 -3.375 10.3125 C-2.59125 10.209375 -1.8075 10.10625 -1 10 C-1 8.68 -1 7.36 -1 6 C-2.32 5.34 -3.64 4.68 -5 4 C-5 3.34 -5 2.68 -5 2 C-3.35 2.33 -1.7 2.66 0 3 C0 2.01 0 1.02 0 0 Z " transform="translate(130,53)" style="fill: #CDF4F3;"/><path d="M0 0 C0.99 0 1.98 0 3 0 C3.33 2.64 3.66 5.28 4 8 C4.99 8 5.98 8 7 8 C7.33 5.36 7.66 2.72 8 0 C8.99 0 9.98 0 11 0 C11 3.96 11 7.92 11 12 C9.741875 12.04125 8.48375 12.0825 7.1875 12.125 C6.47980469 12.14820312 5.77210937 12.17140625 5.04296875 12.1953125 C3 12 3 12 0 10 C-0.29296875 7.6171875 -0.29296875 7.6171875 -0.1875 4.875 C-0.16042969 3.96492188 -0.13335937 3.05484375 -0.10546875 2.1171875 C-0.07066406 1.41851562 -0.03585938 0.71984375 0 0 Z " transform="translate(71,53)" style="fill: #58A7C1;"/><path d="M0 0 C0.66 0 1.32 0 2 0 C2 1.65 2 3.3 2 5 C3.11375 4.95875 4.2275 4.9175 5.375 4.875 C9 5 9 5 11 7 C11.1953125 9.1640625 11.1953125 9.1640625 11.125 11.625 C11.10695312 12.44226562 11.08890625 13.25953125 11.0703125 14.1015625 C11.03550781 15.04128906 11.03550781 15.04128906 11 16 C10.34 16 9.68 16 9 16 C8.67 13.69 8.34 11.38 8 9 C6.35 8.67 4.7 8.34 3 8 C3 10.97 3 13.94 3 17 C2.01 17 1.02 17 0 17 C0 11.39 0 5.78 0 0 Z " transform="translate(153,48)" style="fill: #58BEB8;"/><path d="M0 0 C1.134375 0.020625 2.26875 0.04125 3.4375 0.0625 C3.4375 1.0525 3.4375 2.0425 3.4375 3.0625 C1.7875 2.7325 0.1375 2.4025 -1.5625 2.0625 C-0.30708443 4.57333114 0.93813488 4.93375446 3.4375 6.0625 C3.1075 7.7125 2.7775 9.3625 2.4375 11.0625 C-2.3125 12.1875 -2.3125 12.1875 -4.5625 11.0625 C-4.5625 10.4025 -4.5625 9.7425 -4.5625 9.0625 C-2.9125 9.0625 -1.2625 9.0625 0.4375 9.0625 C0.4375 8.4025 0.4375 7.7425 0.4375 7.0625 C-1.2125 6.7325 -2.8625 6.4025 -4.5625 6.0625 C-4.605221 4.39638095 -4.60313832 2.72867115 -4.5625 1.0625 C-3.5625 0.0625 -3.5625 0.0625 0 0 Z " transform="translate(126.5625,52.9375)" style="fill: #65C2BD;"/><path d="M0 0 C0.99 0 1.98 0 3 0 C3 0.66 3 1.32 3 2 C3.99 2 4.98 2 6 2 C6 2.99 6 3.98 6 5 C5.01 5 4.02 5 3 5 C3 6.98 3 8.96 3 11 C4.32 11 5.64 11 7 11 C7 11.99 7 12.98 7 14 C5.00045254 14.04254356 2.99958364 14.04080783 1 14 C-0.72488307 12.27511693 -0.41081633 9.91546061 -0.625 7.5625 C-0.76808594 6.07943359 -0.76808594 6.07943359 -0.9140625 4.56640625 C-1 2 -1 2 0 0 Z " transform="translate(167,51)" style="fill: #5EBEB5;"/><path d="M0 0 C2.57161458 0.03255208 5.14322917 0.06510417 7.71484375 0.09765625 C7.71484375 4.05765625 7.71484375 8.01765625 7.71484375 12.09765625 C5.73484375 11.43765625 3.75484375 10.77765625 1.71484375 10.09765625 C2.37484375 9.76765625 3.03484375 9.43765625 3.71484375 9.09765625 C3.71484375 7.11765625 3.71484375 5.13765625 3.71484375 3.09765625 C2.39484375 3.09765625 1.07484375 3.09765625 -0.28515625 3.09765625 C-0.61515625 4.41765625 -0.94515625 5.73765625 -1.28515625 7.09765625 C-1.94515625 7.09765625 -2.60515625 7.09765625 -3.28515625 7.09765625 C-3.32769981 5.09810879 -3.32596408 3.09723989 -3.28515625 1.09765625 C-2.28515625 0.09765625 -2.28515625 0.09765625 0 0 Z " transform="translate(142.28515625,52.90234375)" style="fill: #5ABFBC;"/><path d="M0 0 C0.66 0.33 1.32 0.66 2 1 C2 1.99 2 2.98 2 4 C1.34 4 0.68 4 0 4 C-0.28875 4.969375 -0.5775 5.93875 -0.875 6.9375 C-2 10 -2 10 -4 11 C-3.97679687 11.62648438 -3.95359375 12.25296875 -3.9296875 12.8984375 C-3.91164063 13.71570312 -3.89359375 14.53296875 -3.875 15.375 C-3.85179687 16.18710937 -3.82859375 16.99921875 -3.8046875 17.8359375 C-4 20 -4 20 -6 22 C-7.84615153 18.30769694 -7.34792551 14.03842104 -7 10 C-5.42000846 5.73402284 -3.37391208 3.0248867 0 0 Z " transform="translate(14,44)" style="fill: #55AAC5;"/><path d="M0 0 C2.01822917 0.29296875 4.03645833 0.5859375 6.0546875 0.87890625 C8.08140667 1.1684297 8.08140667 1.1684297 10 0 C9.43453326 3.95826719 8.36453668 6.759709 6 10 C2.61211691 12.2457266 -0.25237051 12.21190499 -4.25 12.125 C-5.32765625 12.10695313 -6.4053125 12.08890625 -7.515625 12.0703125 C-8.33546875 12.04710938 -9.1553125 12.02390625 -10 12 C-10 11.67 -10 11.34 -10 11 C-9.08476562 10.91363281 -8.16953125 10.82726562 -7.2265625 10.73828125 C-6.03804687 10.59777344 -4.84953125 10.45726563 -3.625 10.3125 C-2.44164062 10.18488281 -1.25828125 10.05726562 -0.0390625 9.92578125 C3.21501812 9.32142947 3.21501812 9.32142947 4.4140625 6.41796875 C4.60742188 5.62003906 4.80078125 4.82210937 5 4 C2.03 3.505 2.03 3.505 -1 3 C-0.67 2.01 -0.34 1.02 0 0 Z " transform="translate(29,63)" style="fill: #3EA7C8;"/><path d="M0 0 C1.32 0 2.64 0 4 0 C4 1.98 4 3.96 4 6 C3.67 6 3.34 6 3 6 C3 4.35 3 2.7 3 1 C2.34 1 1.68 1 1 1 C1 6.61 1 12.22 1 18 C1.99 18.33 2.98 18.66 4 19 C2.02 19.33 0.04 19.66 -2 20 C-2 15.38 -2 10.76 -2 6 C-1.67 6 -1.34 6 -1 6 C-0.67 4.02 -0.34 2.04 0 0 Z " transform="translate(152,47)" style="fill: #A8E7E5;"/><path d="M0 0 C0.66 0 1.32 0 2 0 C2 1.98 2 3.96 2 6 C-0.64 6.33 -3.28 6.66 -6 7 C-6.433125 8.60875 -6.433125 8.60875 -6.875 10.25 C-7.73600459 13.1200153 -8.62436288 15.38744547 -10 18 C-10.06058594 17.30132812 -10.12117188 16.60265625 -10.18359375 15.8828125 C-10.26738281 14.97273438 -10.35117188 14.06265625 -10.4375 13.125 C-10.51871094 12.22007813 -10.59992188 11.31515625 -10.68359375 10.3828125 C-10.86989285 7.98889139 -10.86989285 7.98889139 -12 6 C-11.30132812 5.81824219 -10.60265625 5.63648438 -9.8828125 5.44921875 C-8.97273438 5.19785156 -8.06265625 4.94648437 -7.125 4.6875 C-6.22007813 4.44386719 -5.31515625 4.20023438 -4.3828125 3.94921875 C-1.67886681 3.13330148 -1.67886681 3.13330148 0 0 Z " transform="translate(105,47)" style="fill: #C0E9F5;"/><path d="M0 0 C1.32 0 2.64 0 4 0 C4.66 1.65 5.32 3.3 6 5 C6.66 4.67 7.32 4.34 8 4 C8 5.32 8 6.64 8 8 C7.01 8 6.02 8 5 8 C5 8.66 5 9.32 5 10 C5.99 10 6.98 10 8 10 C8 10.66 8 11.32 8 12 C6.35 12 4.7 12 3 12 C2.01 8.04 1.02 4.08 0 0 Z " transform="translate(49,53)" style="fill: #5BABCA;"/><path d="M0 0 C2.64 0 5.28 0 8 0 C8 0.99 8 1.98 8 3 C6.68 3.33 5.36 3.66 4 4 C3.67 6.64 3.34 9.28 3 12 C2.01 12 1.02 12 0 12 C0 8.04 0 4.08 0 0 Z " transform="translate(112,53)" style="fill: #5AA6C2;"/><path d="M0 0 C0 0.33 0 0.66 0 1 C-9.405 1.495 -9.405 1.495 -19 2 C-19 2.66 -19 3.32 -19 4 C-18.34 4 -17.68 4 -17 4 C-17 5.32 -17 6.64 -17 8 C-18.32 8 -19.64 8 -21 8 C-21 5.69 -21 3.38 -21 1 C-14.04359209 -1.81568891 -7.33438993 -0.75276679 0 0 Z " transform="translate(35,53)" style="fill: #75D7E3;"/><path d="M0 0 C0.99 0.33 1.98 0.66 3 1 C3 4.3 3 7.6 3 11 C2.01 11.33 1.02 11.66 0 12 C-0.66 11.34 -1.32 10.68 -2 10 C-1.01 10 -0.02 10 1 10 C0.175 9.54625 -0.65 9.0925 -1.5 8.625 C-2.7375 7.820625 -2.7375 7.820625 -4 7 C-4 6.34 -4 5.68 -4 5 C-3.34 4.67 -2.68 4.34 -2 4 C-0.86649466 1.98330173 -0.86649466 1.98330173 0 0 Z " transform="translate(35,53)" style="fill: #63C8DC;"/><path d="M0 0 C1.32 0 2.64 0 4 0 C5.29449495 3.88348484 5.13203312 6.90697336 5 11 C4 12 4 12 1.4375 12.0625 C0.633125 12.041875 -0.17125 12.02125 -1 12 C-1.33 9.03 -1.66 6.06 -2 3 C-1.01 3.495 -1.01 3.495 0 4 C0 6.31 0 8.62 0 11 C0.66 11 1.32 11 2 11 C1.85892253 9.54119891 1.71197585 8.08296449 1.5625 6.625 C1.44068359 5.40683594 1.44068359 5.40683594 1.31640625 4.1640625 C1.10909886 1.95727195 1.10909886 1.95727195 0 0 Z " transform="translate(162,53)" style="fill: #ADEAEA;"/><path d="M0 0 C1.65 0 3.3 0 5 0 C5 2.64 5 5.28 5 8 C3.0625 8.5625 3.0625 8.5625 1 9 C0 8 0 8 -0.09765625 6.15234375 C-0.06510417 4.1015625 -0.03255208 2.05078125 0 0 Z " transform="translate(74,53)" style="fill: #C8ECF5;"/><path d="M0 0 C0.33 0 0.66 0 1 0 C1 3.63 1 7.26 1 11 C1.99 11 2.98 11 4 11 C4 7.37 4 3.74 4 0 C5.32 0.33 6.64 0.66 8 1 C7.74438677 3.3431213 7.40729228 5.67843403 7 8 C6.01 8.495 6.01 8.495 5 9 C5 9.99 5 10.98 5 12 C3.35 12 1.7 12 0 12 C0 8.04 0 4.08 0 0 Z " transform="translate(132,53)" style="fill: #B7F0EF;"/><path d="M0 0 C0 0.99 0 1.98 0 3 C1.98 3 3.96 3 6 3 C6.33 3.66 6.66 4.32 7 5 C3.75 5.6875 3.75 5.6875 0 6 C-2 4.625 -2 4.625 -4 3 C-7.65274469 2.27518916 -7.65274469 2.27518916 -11 2 C-7.36576791 -0.32590854 -4.22911669 -0.16265833 0 0 Z " transform="translate(27,42)" style="fill: #54B6B8;"/><path d="M0 0 C0.82757812 0.16371094 1.65515625 0.32742187 2.5078125 0.49609375 C6.32194189 1.0464547 10.03353501 1.11089055 13.875 1.0625 C14.56335937 1.05798828 15.25171875 1.05347656 15.9609375 1.04882812 C17.64066335 1.03716336 19.32034375 1.01923271 21 1 C20.01 2.485 20.01 2.485 19 4 C12.52270207 5.0141224 6.20027001 3.87177963 0 2 C0 1.34 0 0.68 0 0 Z " transform="translate(16,74)" style="fill: #E1FDFD;"/><path d="M0 0 C0.99 0.99 1.98 1.98 3 3 C3.33 3 3.66 3 4 3 C4 5.97 4 8.94 4 12 C2.68 12 1.36 12 0 12 C0 8.04 0 4.08 0 0 Z " transform="translate(84,53)" style="fill: #6CB3CF;"/><path d="M0 0 C2 1 2 1 3 4 C2.67 4.66 2.34 5.32 2 6 C1.34 6 0.68 6 0 6 C0 8.97 0 11.94 0 15 C-0.66 14.67 -1.32 14.34 -2 14 C-3.28036155 8.18912837 -3.25721012 5.21153619 0 0 Z " transform="translate(14,48)" style="fill: #43B2CD;"/><path d="M0 0 C1.32 0 2.64 0 4 0 C5.4783226 2.95664519 5.06032783 5.74229737 5 9 C4.67 8.01 4.34 7.02 4 6 C3.01 6 2.02 6 1 6 C0.67 6.99 0.34 7.98 0 9 C0 6.03 0 3.06 0 0 Z " transform="translate(156,56)" style="fill: #D7FCFB;"/><path d="M0 0 C1.2065625 0.0309375 1.2065625 0.0309375 2.4375 0.0625 C2.4375 1.7125 2.4375 3.3625 2.4375 5.0625 C0.7875 5.3925 -0.8625 5.7225 -2.5625 6.0625 C-2.94468767 4.40635343 -3.27645102 2.73792976 -3.5625 1.0625 C-2.5625 0.0625 -2.5625 0.0625 0 0 Z " transform="translate(103.5625,55.9375)" style="fill: #CEF4FB;"/><path d="M0 0 C0.99 0 1.98 0 3 0 C3 3.63 3 7.26 3 11 C2.01 11 1.02 11 0 11 C0 7.37 0 3.74 0 0 Z " transform="translate(133,53)" style="fill: #63BEBB;"/><path d="M0 0 C2.18975773 3.28463659 2.99806563 6.20696275 4 10 C2.68 10.33 1.36 10.66 0 11 C-1.62651522 7.74696956 -1.11453156 4.60774398 -1 1 C-0.67 0.67 -0.34 0.34 0 0 Z " transform="translate(10,54)" style="fill: #34A4CF;"/><path d="M0 0 C6.57315478 -0.36517527 11.79485526 0.86380263 18 3 C17.67 4.32 17.34 5.64 17 7 C16.30519531 6.53980469 15.61039063 6.07960938 14.89453125 5.60546875 C11.81840007 3.89927453 9.10646232 3.10149131 5.6875 2.3125 C4.61886719 2.06113281 3.55023437 1.80976562 2.44921875 1.55078125 C1.64097656 1.36902344 0.83273438 1.18726563 0 1 C0 0.67 0 0.34 0 0 Z " transform="translate(22,41)" style="fill: #D1F5F6;"/><path d="M0 0 C1.32 0 2.64 0 4 0 C3.67 1.65 3.34 3.3 3 5 C2.34 5 1.68 5 1 5 C0.67 6.65 0.34 8.3 0 10 C-0.99 10 -1.98 10 -3 10 C-3 9.34 -3 8.68 -3 8 C-2.01 8 -1.02 8 0 8 C0 5.36 0 2.72 0 0 Z " transform="translate(57,53)" style="fill: #4FA3C4;"/><path d="M0 0 C2.05078125 0.03255208 4.1015625 0.06510417 6.15234375 0.09765625 C5.34796875 0.43796875 5.34796875 0.43796875 4.52734375 0.78515625 C0.58855919 2.96185298 -2.66794769 5.91794769 -5.84765625 9.09765625 C-5.84765625 7.77765625 -5.84765625 6.45765625 -5.84765625 5.09765625 C-5.18765625 5.09765625 -4.52765625 5.09765625 -3.84765625 5.09765625 C-3.63109375 4.13859375 -3.63109375 4.13859375 -3.41015625 3.16015625 C-2.58556577 0.13665781 -2.58556577 0.13665781 0 0 Z " transform="translate(13.84765625,41.90234375)" style="fill: #D4F4F9;"/><path d="M0 0 C0 3.3 0 6.6 0 10 C-1.32 9.67 -2.64 9.34 -4 9 C-4 8.34 -4 7.68 -4 7 C-3.34 7 -2.68 7 -2 7 C-2 5.68 -2 4.36 -2 3 C-2.66 3 -3.32 3 -4 3 C-4 2.34 -4 1.68 -4 1 C-2 0 -2 0 0 0 Z " transform="translate(20,54)" style="fill: #4AABC0;"/><path d="M0 0 C0.66 0 1.32 0 2 0 C2 3.96 2 7.92 2 12 C0.02 11.34 -1.96 10.68 -4 10 C-2.68 9.34 -1.36 8.68 0 8 C0 5.36 0 2.72 0 0 Z " transform="translate(148,53)" style="fill: #4AB8B5;"/><path d="M0 0 C1.32 0 2.64 0 4 0 C4.79953138 3.28696233 5.09658936 4.71023192 4 8 C3.67 9.32 3.34 10.64 3 12 C2.01 8.04 1.02 4.08 0 0 Z " transform="translate(49,53)" style="fill: #79B8CE;"/><path d="M0 0 C0.66 0 1.32 0 2 0 C1.67 1.65 1.34 3.3 1 5 C-3.75 6.125 -3.75 6.125 -6 5 C-6 4.34 -6 3.68 -6 3 C-4.02 3 -2.04 3 0 3 C0 2.01 0 1.02 0 0 Z " transform="translate(128,59)" style="fill: #63BDB2;"/><path d="M0 0 C0.66 0 1.32 0 2 0 C1.41196203 3.02419525 0.77321882 6.01758453 0 9 C-0.99 9 -1.98 9 -3 9 C-3 7.02 -3 5.04 -3 3 C-2.01 3 -1.02 3 0 3 C0 2.01 0 1.02 0 0 Z " transform="translate(173,53)" style="fill: #C8F3F3;"/><path d="M0 0 C1.98 0.66 3.96 1.32 6 2 C5.1028125 2.309375 5.1028125 2.309375 4.1875 2.625 C1.18981233 4.50926082 0.38638224 6.81132084 -1 10 C-1.33 10 -1.66 10 -2 10 C-2.1953125 3.9453125 -2.1953125 3.9453125 -2 2 C-1.34 1.34 -0.68 0.68 0 0 Z " transform="translate(99,53)" style="fill: #6DB3D2;"/><path d="M0 0 C1.53298854 3.06597708 1.01817126 6.11407846 0.9375 9.4921875 C0.99594705 11.83737555 1.33345243 13.76081676 2 16 C1.01 16 0.02 16 -1 16 C-1.02685095 13.52076199 -1.04676547 11.0418116 -1.0625 8.5625 C-1.07506836 7.50192383 -1.07506836 7.50192383 -1.08789062 6.41992188 C-1.09653588 4.61306441 -1.05220011 2.80612397 -1 1 C-0.67 0.67 -0.34 0.34 0 0 Z " transform="translate(7,52)" style="fill: #CAEFF9;"/><path d="M0 0 C2.31 0.66 4.62 1.32 7 2 C6.67 2.99 6.34 3.98 6 5 C4.02 5.33 2.04 5.66 0 6 C0 4.02 0 2.04 0 0 Z " transform="translate(139,62)" style="fill: #B4F1EE;"/><path d="M0 0 C0.66 0 1.32 0 2 0 C2.33 1.65 2.66 3.3 3 5 C0.64561267 6.42944945 -0.48032433 7.08661261 -3.25 6.625 C-3.8275 6.41875 -4.405 6.2125 -5 6 C-3.68 5.67 -2.36 5.34 -1 5 C-0.67 3.35 -0.34 1.7 0 0 Z " transform="translate(58,60)" style="fill: #C6EDF7;"/><path d="M0 0 C1.32 0 2.64 0 4 0 C3.67 1.65 3.34 3.3 3 5 C1.68 5 0.36 5 -1 5 C-0.67 3.35 -0.34 1.7 0 0 Z " transform="translate(143,56)" style="fill: #C6FAFB;"/><path d="M0 0 C0.66 0 1.32 0 2 0 C2.66 1.65 3.32 3.3 4 5 C4.99 5 5.98 5 7 5 C7 5.66 7 6.32 7 7 C4.23723823 6.47731534 1.6739124 5.89130413 -1 5 C-0.67 3.35 -0.34 1.7 0 0 Z " transform="translate(29,56)" style="fill: #48AEC5;"/><path d="M0 0 C0.66 0 1.32 0 2 0 C2 1.98 2 3.96 2 6 C-0.31 5.34 -2.62 4.68 -5 4 C-5 3.34 -5 2.68 -5 2 C-2.525 2.495 -2.525 2.495 0 3 C0 2.01 0 1.02 0 0 Z " transform="translate(130,53)" style="fill: #C2F6F7;"/><path d="M0 0 C1.32 0.33 2.64 0.66 4 1 C4 2.32 4 3.64 4 5 C2.68 5.33 1.36 5.66 0 6 C-0.66 4.68 -1.32 3.36 -2 2 C-1.34 1.67 -0.68 1.34 0 1 C0 0.67 0 0.34 0 0 Z " transform="translate(33,56)" style="fill: #6FCFE5;"/><path d="M0 0 C0.99 0 1.98 0 3 0 C2.34 4.29 1.68 8.58 1 13 C0.67 13 0.34 13 0 13 C-0.19466332 11.20909747 -0.38051213 9.41723495 -0.5625 7.625 C-0.66691406 6.62726562 -0.77132812 5.62953125 -0.87890625 4.6015625 C-1 2 -1 2 0 0 Z " transform="translate(167,51)" style="fill: #66C3BB;"/><path d="M0 0 C1.32 0 2.64 0 4 0 C3.67 2.31 3.34 4.62 3 7 C2.34 7 1.68 7 1 7 C0.67 4.69 0.34 2.38 0 0 Z " transform="translate(61,53)" style="fill: #C7F0FC;"/><path d="M0 0 C-0.33 0.99 -0.66 1.98 -1 3 C-3.31 3 -5.62 3 -8 3 C-8 2.34 -8 1.68 -8 1 C-5.23735711 0.40267181 -2.83967231 0 0 0 Z " transform="translate(148,66)" style="fill: #63B7AE;"/><path d="M0 0 C0.66 0 1.32 0 2 0 C2 1.98 2 3.96 2 6 C0.02 6 -1.96 6 -4 6 C-3.01 5.67 -2.02 5.34 -1 5 C-0.67 3.35 -0.34 1.7 0 0 Z " transform="translate(107,58)" style="fill: #439BBF;"/><path d="M0 0 C1.98 0.66 3.96 1.32 6 2 C6 2.66 6 3.32 6 4 C4.35 4 2.7 4 1 4 C0.67 4.66 0.34 5.32 0 6 C0 4.02 0 2.04 0 0 Z " transform="translate(121,58)" style="fill: #C1F7F6;"/><path d="M0 0 C0 1.65 0 3.3 0 5 C0.66 5.33 1.32 5.66 2 6 C1.01 6 0.02 6 -1 6 C-1.33 6.66 -1.66 7.32 -2 8 C-2 7.01 -2 6.02 -2 5 C-2.66 5 -3.32 5 -4 5 C-4 3 -4 3 -2.5625 1.375 C-1 0 -1 0 0 0 Z " transform="translate(62,55)" style="fill: #5AB5D1;"/><path d="M0 0 C1.65 0 3.3 0 5 0 C5.33 1.32 5.66 2.64 6 4 C5.01 4 4.02 4 3 4 C3 3.34 3 2.68 3 2 C2.01 2 1.02 2 0 2 C-0.33 2.66 -0.66 3.32 -1 4 C-0.67 2.68 -0.34 1.36 0 0 Z " transform="translate(167,49)" style="fill: #C6F0EE;"/><path d="M0 0 C2.475 0.99 2.475 0.99 5 2 C5 2.66 5 3.32 5 4 C6.32 4.66 7.64 5.32 9 6 C4.58763974 6 3.21615077 3.9302707 0 1 C0 0.67 0 0.34 0 0 Z " transform="translate(9,67)" style="fill: #5AA6C9;"/></svg>